<?xml version="1.0"?>
<svg xmlns="http://www.w3.org/2000/svg" xmlns:xlink="http://www.w3.org/1999/xlink" xmlns:svgjs="http://svgjs.com/svgjs" version="1.1" width="512" height="512" x="0" y="0" viewBox="0 0 464.084 464.084" style="enable-background:new 0 0 512 512" xml:space="preserve"><g><path xmlns="http://www.w3.org/2000/svg" d="m232.008 464.051c-128.157 0-232-103.9-232-232 0-128.153 103.901-232 232-232 113.762 0 208.34 81.869 228.18 189.83 26.263 143.13-83.645 274.17-228.18 274.17z" fill="#27dfe8" data-original="#27dfe8" style=""/><path xmlns="http://www.w3.org/2000/svg" d="m460.188 189.881c8.427 45.927 3.047 94.498-17.06 138.49-123.517 74.05-297.908 74.46-422.09-.09-.389.17-31.536-60.817-17.16-138.64 133.599 88.025 321.228 88.988 456.31.24z" fill="#40e6ee" data-original="#40e6ee" style=""/><path xmlns="http://www.w3.org/2000/svg" d="m395.458 67.411c32.86 32.62 56.01 75.02 64.73 122.47-134.262 88.209-321.894 88.324-456.31-.24 8.74-47.35 31.87-89.66 64.68-122.23 95.602 62.178 231.275 62.194 326.9 0z" fill="#61ebf2" data-original="#61ebf2" style=""/><path xmlns="http://www.w3.org/2000/svg" d="m395.458 67.411c-95.601 62.179-231.274 62.195-326.9 0 90.545-89.897 236.493-89.762 326.9 0z" fill="#88f2f7" data-original="#88f2f7" style=""/><path xmlns="http://www.w3.org/2000/svg" d="m219.488 463.72c-88.4-4.7-163.67-58.89-198.61-135.37 1.458-.636 65.244 44.904 173.37 54.11 3.393 29.182 12.238 56.802 25.24 81.26z" fill="#41e0e8" data-original="#41e0e8" style=""/><path xmlns="http://www.w3.org/2000/svg" d="m194.248 382.461c-90.08-7.67-151.69-41.26-173.21-54.18-.389.17-31.536-60.817-17.16-138.64 26.87 17.7 102.27 61.97 211.23 66.1-19.029 39.953-25.862 84.002-20.86 126.72z" fill="#5ae7ee" data-original="#5ae7ee" style=""/><path xmlns="http://www.w3.org/2000/svg" d="m437.218 123.72c-94.32-5.227-181.85 47.498-222.11 132.02-108.96-4.13-184.36-48.4-211.23-66.1 8.74-47.35 31.87-89.66 64.68-122.23 95.597 62.178 231.275 62.196 326.9 0 16.601 16.48 30.72 35.451 41.76 56.31z" fill="#79ecf2" data-original="#79ecf2" style=""/><path xmlns="http://www.w3.org/2000/svg" d="m153.789 450.531c-59.06-21.14-107.04-65.55-132.91-122.18.752-.328 23.502 15.543 66.05 30.82 13.981 34.56 36.692 66.29 66.86 91.36z" fill="#58e1e8" data-original="#58e1e8" style=""/><path xmlns="http://www.w3.org/2000/svg" d="m86.928 359.171c-45.134-16.206-64.97-31.292-66.05-30.82-20.319-44.474-25.41-93.18-17-138.71 12.91 8.51 37.02 23.14 70.67 36.51-8.993 45.351-4.495 91.409 12.38 133.02z" fill="#72e8ee" data-original="#72e8ee" style=""/><path xmlns="http://www.w3.org/2000/svg" d="m144.508 101.71c-35.134 32.352-60.226 75.941-69.96 124.44-33.65-13.37-57.76-28-70.67-36.51 8.74-47.35 31.87-89.66 64.68-122.23 10.8 7.031 37.18 23.011 75.95 34.3z" fill="#91edf2" data-original="#91edf2" style=""/><path xmlns="http://www.w3.org/2000/svg" d="m380.208 53.551c-79.085-28.293-170.496-12.174-235.7 48.16-38.77-11.29-65.15-27.27-75.95-34.3 85.002-84.394 219.957-90.067 311.65-13.86z" fill="#a1f3f7" data-original="#a1f3f7" style=""/></g></svg>
